/* XPM */
static char *_c3f45209c1d4b31f5b9bf4abb3f62646qguosOY0YzrhXuF[] = {
/* columns rows colors chars-per-pixel */
"64 64 185 2 ",
"   c None",
".  c #010000",
"X  c #0C0503",
"o  c gray4",
"O  c #1B0B07",
"+  c #111111",
"@  c #200E08",
"#  c #2B130B",
"$  c #39170E",
"%  c #272424",
"&  c #322727",
"*  c #491F12",
"=  c #4D1513",
"-  c #5D1916",
";  c #5E1B18",
":  c #611C19",
">  c #6A1E18",
",  c #4C2114",
"<  c #5D201D",
"1  c #6B211B",
"2  c #66291A",
"3  c #75251D",
"4  c #77281F",
"5  c #70301C",
"6  c #4B3837",
"7  c #6A2926",
"8  c #7D2B20",
"9  c #752B25",
"0  c #7E3620",
"q  c #7D312A",
"w  c #464646",
"e  c #6A4443",
"r  c gray46",
"t  c #8A281B",
"y  c #882616",
"u  c #932816",
"i  c #942C1C",
"p  c #9C2B18",
"a  c #A72E19",
"s  c #A82F1A",
"d  c #AC321C",
"f  c #A5301B",
"g  c #B2361E",
"h  c #B43A1E",
"j  c #B9391F",
"k  c #832E22",
"l  c #873023",
"z  c #843921",
"x  c #893723",
"c  c #923625",
"v  c #9F3D29",
"b  c #943F25",
"n  c #A93B25",
"m  c #B63A21",
"M  c #BB3D22",
"N  c #C13E22",
"B  c #BB4C17",
"V  c #B64319",
"C  c #BA461B",
"Z  c #B54317",
"A  c #BE5214",
"S  c #BF620A",
"D  c #9B4327",
"F  c #A4432A",
"G  c #A9492B",
"H  c #BE4125",
"J  c #B0442D",
"K  c #B44B2E",
"L  c #BA4C2F",
"P  c #B9452D",
"I  c #BC512F",
"U  c #BE4D33",
"Y  c #B94B36",
"T  c #BD5130",
"R  c #C55C14",
"E  c #C15615",
"W  c #C66112",
"Q  c #D16E11",
"!  c #D37211",
"~  c #CC7907",
"^  c #C34326",
"/  c #C94325",
"(  c #C54628",
")  c #C6492A",
"_  c #CC4B2C",
"`  c #C64827",
"'  c #D14727",
"]  c #D24D2C",
"[  c #DD4E2B",
"{  c #D3512F",
"}  c #C34F31",
"|  c #C35232",
" . c #CB5434",
".. c #CD593D",
"X. c #D65330",
"o. c #DA5632",
"O. c #D55A36",
"+. c #DD5934",
"@. c #DB5D38",
"#. c #D55A3B",
"$. c #E1512D",
"%. c #E45630",
"&. c #E25C36",
"*. c #E95D36",
"=. c #E55F38",
"-. c #DF6039",
";. c #E96037",
":. c #E66139",
">. c #EE673D",
",. c #F0673D",
"<. c #F0683D",
"1. c #8E5F5C",
"2. c #B85B4A",
"3. c #BF6657",
"4. c #9D7270",
"5. c #D25F42",
"6. c #C85F48",
"7. c #CD634B",
"8. c #DA6040",
"9. c #C26C5D",
"0. c #CC715D",
"q. c #C97A6C",
"w. c #D17B69",
"e. c #CE8202",
"r. c #D28603",
"t. c #D68904",
"y. c #DA8D05",
"u. c #DD820F",
"i. c #DE9106",
"p. c #E0860F",
"a. c #E48C0E",
"s. c #E19406",
"d. c #E69907",
"f. c #E79A08",
"g. c #EA9D08",
"h. c #ED9F09",
"j. c #EC9B0B",
"k. c #E9940D",
"l. c #F09F0C",
"z. c #EEA109",
"x. c #EEA109",
"c. c #F1A20A",
"v. c #F2A50A",
"b. c #F5A70A",
"n. c #F4A40B",
"m. c #F2A20C",
"M. c #F7A90B",
"N. c #F6A80B",
"B. c #F7AA0B",
"V. c #F8AB0A",
"C. c #F8A90B",
"Z. c #F9AC0A",
"A. c #CE8A7F",
"S. c #D28778",
"D. c #8F9090",
"F. c #939595",
"G. c #A3A3A3",
"H. c gray71",
"J. c #D29085",
"K. c #D69589",
"L. c #DB9F94",
"P. c #DAA69D",
"I. c #DDADA5",
"U. c #DFB2AA",
"Y. c #CBBEBD",
"T. c #E1B5AD",
"R. c #E4BEB8",
"E. c #E6C2BC",
"W. c gray81",
"Q. c #DBC7C5",
"!. c LightGray",
"~. c #E9CBC5",
"^. c #E9CCC8",
"/. c #ECD2CE",
"(. c #EED9D6",
"). c #EDD8D5",
"_. c #F1DDDA",
"`. c #F1E0DD",
"'. c #E3E3E3",
"]. c #EEEEEE",
"[. c #F8EFED",
"{. c #F3E4E1",
"}. c #F3F3F3",
"|. c #FAF4F4",
" X c #FFFFFF",
/* pixels */
"                                                                  r.r.t.y.y.y.y.t.t.t.r.                                        ",
"                                                                y.g.m.v.v.b.v.v.v.v.h.g.d.s.y.r.                                ",
"                                                                d.B.B.b.B.B.B.B.C.C.B.B.B.C.b.h.s.i.t.                          ",
"                                                          r.t.r.i.s.s.i.s.s.d.d.g.h.m.b.B.b.C.B.C.b.h.y.                        ",
"                                              t.i.s.f.g.z.z.m.v.c.c.c.x.h.h.f.f.d.s.i.s.s.d.g.m.B.B.C.z.r.                      ",
"                                        i.s.h.v.B.m.u.Q ! p.m.M.C.B.B.B.B.B.B.C.C.C.b.v.z.g.s.s.s.d.z.g.r.                      ",
"                                    r.g.v.C.M.C.a.A M ^ M g R m.B.B.N.C.B.B.B.B.B.b.C.C.B.B.B.b.z.f.s.y.r.                      ",
"                                    r.f.B.B.C.n.A M :.>.>.o.d ! V.V.V.V.V.C.C.C.B.B.B.b.B.B.B.C.B.B.b.m.f.y.r.                  ",
"                                      r.i.z.M.l.Z { <.>.>.>.H A a.p.u.u.u.p.a.k.j.m.n.M.B.C.B.C.B.B.B.B.C.b.f.t.r.              ",
"                                        e.r.s.h.E ( >.>.>.>._ H ` ` ` ` ) ) ` C C C B R ! p.h.b.C.B.B.C.b.j.l.l.d.t.            ",
"                                              ~ A g o.>.<.>.>.,.<.<.<.<.<.>.>.>.=.&.o._ H h Z R u.l.B.k.R h V E p.v.i.r.        ",
"                                            a d H o.>.>.>.-.T D z 5 2 5 K >.>.>.,.,.<.<.>.:.o.) h B ! E ^ &.&.) h a.B.d.t.      ",
"                                        s d ( +.>.>.>.<.| $ o . . . . . * >.>.<.>.,.<.<.<.<.<.<.;.X.M g =.<.,.>.M W B.b.z.y.    ",
"                                      d ^ +.>.<.>.>.<.<.G . . . . . . . , :.>.<.>.>.:.@.#.-.-.-.>.,.;.+.>.<.>.>.m R B.B.C.z.r.  ",
"                                  d M o.>.,.>.>.>.<.<.<.| O X X O O # , I <.<.>.>.z $ # # # # $ , z >.<.>.>.;.) h u.Z.B.m.s.r.  ",
"                                d ) :.<.<.>.>.<.>.<.<.<.>.T K I | O.-.:.<.>.>.>.#.@ . . . . . . . $ :.>.>.>.{ d W d.s.y.r.      ",
"                              d X.>.<.>.>.>.>.<.>.<.>.>.>.;.+.o...X.{ *.>.,.,.,.-.$ X . . . . . . < <.<.<.<.>.X.C S             ",
"                            d X.>.>.>.>.>.<.>.>.>.>.>.>.@.w.T./.(.^.I.w.+.>.>.>.>.@.K D x 5 z x F -.<.<.<.>.>.>.&.m             ",
"                          d _ <.>.<.>.<.<.>.>.<.>.>.>.#.T.|. X X X X X|.S.+.,.>.:.+.@.8.#.@.=.,.<.>.<.<.>.>.<.>.<.&.m           ",
"                        a ( >.<.>.>.>.>.,.<.>.>.>.>.O.U. X X X X X X X X{.7.>.o.7.P.^.(.(.^.L.5.:.<.<.<.<.>.>.>.<.<.X.d         ",
"                        M :.>.<.>.>.>.>.>.*.>.>.<.;.0.|. X X X X X X X X|.w.{ S.`. X X X X X X~.7.@.>.>.>.>.>.>.,.>.>.( s       ",
"                      d X.<.>.>.>.>.&.{  .) ( ^ ] X.K. X X X X].'. X X X Xq.q.|. X X X X X X X X~...>.<.>.>.>.>.>.>.,.:.m       ",
"                      m :.>.<.>.,.,.>.>.>.>.=.o.) g A. X X XW.w % r }. X[.9.^. X X X X X X X X X XJ.o.<.>.<.>.>.>.<.>.,.X.s     ",
"                    a  .<.<.>.>.,.,.>.>.>.>.>.,.,.o.P P. X Xr . . + !. XR.2.[.}.H.G.'. X X X X X XU.X.<.>.>.>.>.>.>.,.,.=.h     ",
"                    d +.<.>.>.>.,.>.,.>.<.>.>.>.>.<.5.Y /. XG.+ . & Y.Q.2.2.|.D.o . w ]. X X X X XP.X.<.<.<.>.<.,.>.<.>.;.^ a   ",
"                    g :.>.>.>.<.,.>.,.>.>.>.>.<.<.>.,.N 9.E.Q.e = 7 7 7 > 9 4.6 . . % '. X X X X`.9.^ { o.@.;.>.<.>.>.>.;.[ d   ",
"                  a M >.>.>.>.>.>.>.>.>.<.<.<.>.,.,.,.X.m } q : ; : ; ; ; ; ; - $ & F. X X X~.q.Y ) ] X.o.+.;.>.>.<.>.>.*.$.g   ",
"                  a ( >.>.>.>.>.<.,.>.,.<.<.<.<.>.,.,.o.M } : ; ; ; : : : ; : ; ; 1.).`.(.J.P _ ;.>.<.<.<.<.<.>.>.>.>.<.*.$.M s ",
"                  a _ >.>.>.<.>.>.>.>.>.>.>.>.>.,.>.,._ M } : ; : ; : ; : : ; : ; 3 U U J m +.<.<.<.>.>.>.<.>.>.<.>.>.<.$.$./ s ",
"                  s X.<.>.<.>.>.<.>.>.>.>.>.<.>.,.>.>.M _ @.3 - : : : : : : : : ; l ;._ d +.<.<.>.>.>.>.>.<.>.<.>.>.,.,.$.$./ s ",
"                  s X.<.<.>.<.>.>.>.>.>.>.>.>.>.>.,. .m *.,.U 9 ; ; ; ; ; ; ; ; 1 U >.M ) <.<.>.>.<.>.<.>.>.>.>.>.<.>.;.$.$./ s ",
"                  s H ] o.=.>.<.>.<.>.<.>.>.>.<.>.X.M } } >.,.@.K n c l 8 4 4 l } >.;.m o.<.>.>.>.>.<.>.>.<.>.<.>.>.,.*.$.$./ a ",
"                  a m ^ ( N ) o.>.>.<.>.>.>.>.+._ ^ +. .7 n >.<.>.>.>.>.:.-.:.:.<.<.;.m +.<.,.>.<.<.>.>.<.<.<.<.<.<.>.%.$.$./ a ",
"                  a _ >.>.>.@._ ( =.>.,.>.>.>.+.&.>.,.>.n : k  .>.>.<.<.>.<.<.>.:.} c i _ ,.>.>.>.>.>.<.<.<.;.<.<.;.;.$.$.$.j a ",
"                  s X.>.>.>.,.>.+.H X.>.>.>.>.,.>.>.>.>.>.J > > c K  ...O. .U v 4 > x | M o.>.>.<.>.>.>.>.<.<.<.<.;.%.$.$.[ h a ",
"                  a ^ >.,.>.>.,.<.+.m _ >.>.,.>.>.>.&.X. .) n i t t t t 3 1 ; 1 k Y >.<.+.M o.>.>.>.<.>.;.<.<.<.<.;.$.$.$.[ g   ",
"                    d &.>.>.>.>.>.<.o.m _ >.>.:._ ^ ^  .o.+.@.&.&.+.X._ H n i n +.>.>.>.>.:.:.>.>.>.>.>.>.>.<.>.,.$.$.$.$.' d   ",
"                    a ^ >.,.,.>.>.>.>.X.g _ o.M H +.;.,.,.,.,.,.>.<.<.<.>.;.=.{ ( ( o.;.<.>.>.>.>.<.>.>.>.>.>.<.*.$.$.$.$.N a   ",
"                    a d X.,.,.,.>.>.>.>.X.m s ^ >.<.,.<.>.>.,.>.>.,.<.>.>.<.,.,.>.+._ ^ X.>.>.>.>.>.>.>.>.<.>.;.$.$.$.$.$.g     ",
"                      a m =.>.,.>.>.>.>.,.+.m ) +.=.>.,.>.>.>.>.>.>.<.>.>.>.,.,.>.>.>.=.) H +.>.<.>.>.>.>.>.;.%.$.$.$.$.' d     ",
"                      s s ( *.,.>.>.>.<.>.>.>._ M } =.:.&._ M M M ( X.>.>.>.<.<.>.<.>.>.>.o.M _ ;.>.>.<.>.>.$.$.$.$.$.$.j s     ",
"                      s s s _ >.>.>.>.>.>.<.>.>.=.X.) N M M { @.+.{ ( H ] =.>.>.>.>.>.<.>.>.:.^ H :.>.<.;.%.$.$.$.$.$.' d       ",
"        a s d s s s n ) ( a s { <.>.>.>.>.>.>.>.>.,.>.:.:.>.,.<.<.<.>.&.) M _ >.>.<.>.<.>.>.>.>._ M &.;.%.$.$.$.$.$.[ j s       ",
"    a d M _ X.+.o.+.=.>.>.( a g o.>.>.>.>.>.>.>.,.>.,.>.>.>.>.>.>.>.>.>.<.) a M =.>.>.>.>.>.>.<.<._ m [ $.$.$.$.$.[ M s         ",
"  a d { >.<.<.<.,.,.,.>.>.>.M s m { >.>.>.<.<.,.>.,.,.,.>.>.>.<.>.>.=.+.X.m s g m =.<.<.<.>.>.>.<.>._ m [ $.$.$.$.N s           ",
"  s  .>.>.>.>.>.,.,.,.,.>.>.>.M a f _ *.<.>.,.,.<.<.<.>.>.<.>.>.<.;.X.H m M ) @.M m ] >.>.>.<.>.>.>.>.( / $.$.[ M s             ",
"s m >.>.>.>.>.>.,.,.>.>.>.>.>.>.) s a M &.>.,.,.<.<.>.>.<.>.>.>.<.<.>.>.>.>.>.<.+.d d H =.>.>.>.>.>.>.&.j [ ' j s               ",
"a M >.>.<.>.>.<.>.>.>.>.>.>.>.>.&.m a a m  .:.<.>.>.<.>.<.>.>.>.>.>.>.<.<.>.>.<.=.d M N m _ >.>.<.<.<.&.g N g s                 ",
"s m ;.<.>.>.>.>.<.>.>.>.>.<.>.>.) a   s a s m X.>.>.>.>.<.>.>.>.>.>.>.,.>.&.&.@.] s N $.' N / _ { ] ] M s a                     ",
"  s H +.>.>.<.>.>.>.>.>.>.>.>.=.g         s a d M X.:.>.<.<.>.>.>.<.>.>.=.+._ H d s N $.%.$.[ ' ^ g a a s                       ",
"    a d ( +.;.,.<.>.>.>.>.>.>.) a             s a a m _ +.;.>.<.<.>.,.>.,.,.>.^ s g ' $.[ ' / m d d a                           ",
"        a d m ) o.>.>.>.<.>.X.d                   u p a d M ( X.&.:.;.=.=.X.M a a g N g g s a a                                 ",
"            s a d m ^ ] X.^ n                             y u p f n m d m d d m g M M ^ m a                                     ",
"                  s a s a a                                           u M =.=.;.;.;.>.>.@.m a                                   ",
"                                                                      p { ,.,.>.>.>.>.>.>.&.M n a                               ",
"                                                                      f @.<.>.>.,.>.>.>.,.>.*.X.g a                             ",
"                                                                      g :.>.>.>.>.>.<.>.<.>.>.<.+.d a                           ",
"                                                                    u H >.>.<.>.>.>.>.>.<.>.<.>.<._ s                           ",
"                                                                    u ^ >.>.>.>.>.>.>.>.>.>.>.>.<.+.d                           ",
"                                                                    y g :.<.>.<.>.>.<.<.>.<.>.<.,.&.d                           ",
"                                                                      a M +.>.>.<.>.>.<.<.>.,.<.<.] s                           ",
"                                                                        p d m ( { +.;.>.>.<.<.<.=.m a                           ",
"                                                                            a s s d m H ) _ { ) m a                             ",
"                                                                                    a a a s a a a                               "
};
