/* XPM */
static char *_f03043eb6464c54b69c54972fed4205uAYSu5wI8Xz6HKye[] = {
/* columns rows colors chars-per-pixel */
"64 64 207 2 ",
"   c None",
".  c #361C0D",
"X  c #3C1D0C",
"o  c #371E10",
"O  c #3C2211",
"+  c #3E2218",
"@  c #44230F",
"#  c #55290F",
"$  c #5A2B0F",
"%  c #422712",
"&  c #4C2C14",
"*  c #42251E",
"=  c #462C18",
"-  c #532B12",
";  c #5C2D12",
":  c #4C321A",
">  c #4E341B",
",  c #5E3115",
"<  c #53331A",
"1  c #5C3419",
"2  c #553A1E",
"3  c #5B3A1D",
"4  c #573116",
"5  c #623315",
"6  c #633519",
"7  c #683718",
"8  c #653A1A",
"9  c #6B3C1C",
"0  c #703F1E",
"q  c #432721",
"w  c #442822",
"e  c #412E28",
"r  c #4C3226",
"t  c #45312A",
"y  c #4C342A",
"u  c #4E3925",
"i  c #553525",
"p  c #5B3725",
"a  c #533E23",
"s  c #5B3B24",
"d  c #55352A",
"f  c #58392D",
"g  c #56382C",
"h  c #5C3D31",
"j  c #563F33",
"k  c #623D23",
"l  c #643F29",
"z  c #603E31",
"x  c #6D421E",
"c  c #67461F",
"v  c #72411F",
"b  c #714A1E",
"n  c #76531E",
"m  c #7C531E",
"M  c #5C4223",
"N  c #5D4728",
"B  c #5E492A",
"V  c #574225",
"C  c #5E4136",
"Z  c #5A463F",
"A  c #644323",
"S  c #6C4422",
"D  c #654D2C",
"F  c #6A4E2B",
"G  c #684927",
"H  c #744422",
"J  c #784724",
"K  c #744A24",
"L  c #7A4C26",
"P  c #744D29",
"I  c #7C4D29",
"U  c #70462A",
"Y  c #6C512E",
"T  c #77522B",
"R  c #7C522A",
"E  c #7E592F",
"W  c #7B5421",
"Q  c #624439",
"!  c #6F5530",
"~  c #715731",
"^  c #755B34",
"/  c #7A5D34",
"(  c #7B5334",
")  c #694C42",
"_  c #73564D",
"`  c #765C4B",
"'  c #7B645B",
"]  c #7A6B65",
"[  c #8C5E1B",
"{  c #82581C",
"}  c #8C621A",
"|  c #9B6B17",
" . c #A97415",
".. c #A1711F",
"X. c #804F2B",
"o. c #83532C",
"O. c #8A562E",
"+. c #85592E",
"@. c #8C582F",
"#. c #835A22",
"$. c #875631",
"%. c #895732",
"&. c #845D33",
"*. c #8C5C32",
"=. c #8C5F38",
"-. c #915E34",
";. c #856236",
":. c #8C6234",
">. c #846539",
",. c #8B6639",
"<. c #8B6A3C",
"1. c #946335",
"2. c #996537",
"3. c #946239",
"4. c #946B3B",
"5. c #9C6B3A",
"6. c #9B6938",
"7. c #92713F",
"8. c #9B713E",
"9. c #8D682B",
"0. c #A36E3D",
"q. c #A4723E",
"w. c #A17528",
"e. c #947341",
"r. c #9D7642",
"t. c #9D7A45",
"y. c #8D785C",
"u. c #A27640",
"i. c #AA7441",
"p. c #A37B45",
"a. c #AA7D44",
"s. c #A37F48",
"d. c #B27C46",
"f. c #876E65",
"g. c #88766D",
"h. c #917D62",
"j. c #8E7A73",
"k. c #B8820E",
"l. c #B5800D",
"z. c #B78011",
"x. c #BB8211",
"c. c #CC8F0D",
"v. c #CE910C",
"b. c #D79809",
"n. c #C18710",
"m. c #D99C13",
"M. c #E8A507",
"N. c #F0AE09",
"B. c #C2922A",
"V. c #DCA82B",
"C. c #9E8359",
"Z. c #AC8047",
"A. c #A68149",
"S. c #AA844B",
"D. c #B4864A",
"F. c #B48A4D",
"G. c #BA8D4E",
"H. c #B98E51",
"J. c #BD9253",
"K. c #BB9858",
"L. c #9C8468",
"P. c #8F857D",
"I. c #998675",
"U. c #AC936A",
"Y. c #AB9977",
"T. c #A08768",
"R. c #BDA775",
"E. c #C29554",
"W. c #C69957",
"Q. c #C89A57",
"!. c #C79B58",
"~. c #CA9D59",
"^. c #CFA15B",
"/. c #C3A256",
"(. c #D4A55D",
"). c #DBB253",
"_. c #CAAD70",
"`. c #9C8982",
"'. c #928A87",
"]. c #A69994",
"[. c #A89D8D",
"{. c #AEA38D",
"}. c #ADA298",
"|. c #B5A892",
" X c #B4AEA4",
".X c #B3AFAE",
"XX c #BBB8B5",
"oX c #B8B7B7",
"OX c #BBB2AE",
"+X c #C3B396",
"@X c #C5B9B5",
"#X c #C3C0BE",
"$X c #C9C4BD",
"%X c #CDCCCB",
"&X c #C8C7C4",
"*X c #D2D1CE",
"=X c #DDD7CF",
"-X c #D4D4D2",
";X c #DCDBD9",
":X c #D9D7D5",
">X c #E2E0DC",
",X c #EEEEEB",
"<X c #E5E5E2",
"1X c #F0EFEB",
"2X c #F2F2EE",
"3X c #FEFEFC",
"4X c #F8F7F4",
/* pixels */
"                                                                                                                                ",
"                                                                                                                                ",
"                                                                                                                                ",
"                                                                                                                                ",
"                                                                                                                                ",
"                                                                                                                                ",
"                                                                                                            ;X;X                ",
"                                                                                                          &X4X2X                ",
"                                                                    5                                     -X3X<X.X              ",
"                                                                  ; ; ;                                   @X&X X|.-X*X          ",
"                                                                ; $ x 6 ;                             t u I.|.I.K._..X          ",
"                                                              , ; ; 4.4.5 ,                           t a h.R.U.L./.`           ",
"                                                            , ; 9 6 S.~.1.; ;                       t d g f &.B.( m.{           ",
"                                                          , ; H x ; 5.(.~.+.; ;                     g Q ]._ c k.S M.}           ",
"                                                        , ; v K ; R x a.(.E.R ; ,                   j._ }.`.8 | W N.W           ",
"                                                      , $ 9 R , 9 Z.4.x Z.(.E.R ; ;                 Z g f._ S K  .b.A           ",
"                                                    , ; 9 R K 9 R ~.Q.4.v Z.(.K.I $ ,                 t r r s } b.}             ",
"                                                  5 ; x R L :.5 8.^.(.~.4.v u.(.W.R $ ,                     r m n               ",
"                                                , $ b @.o.r.K 9 F.(.(.(.^.8.x 6.~.Q.I $ ,                                       ",
"                                              , $ R 1.1.D.K $ :.~.(.(.(.(.~.q.x @.Q.W.o.$ ,                                     ",
"                                            ; ; +.8.6.G.L $ 8 Z.(.(.(.(.(.(.~.u.x R E.Q.o.$ ,                                   ",
"                                          ; ; *.a.q.G.R 8 , , 8.^.(.(.^.^.(.(.~.A.K L H.Q.+.$ $                                 ",
"                                        ; 5 6.a.a.D.R b 7 $ $ 7 Z.(.(.(.W.^.(.(.W.A.R L G.Q.:., ;                               ",
"          *X,X&X                      ; 7 q.D.D.D.R o.x , J 5 ; x G.(.(.~.D.~.(.(.E.S.&.R G.^.1.5 ;                             ",
"          -X3X;X                  6 ; 9 D.^.W.F.R :.K ; I J ; 9 ; J J.(.(.E.q.Q.(.(.Q.F.4.+.E.(.p.9 ; 6                         ",
"      %X$X X>X:X                6 ; K F.(.(.D.+.q.R $ K X.8 6 5 H ; J E.(.(.D.1.W.(.(.(.Q.S.S.^.(.F.L ; 5                       ",
"       X_.T.{.[.                ; L J.(.(.F.1.D.@.; v o.1 M D 1 9 H ; L E.(.(.q.o.J.(.(.(.(.Q.^.(.(.E.o.;                       ",
"      r.K.L.R.L.u               ; u.(.(.G.q.E.:., v o.5 > 2 a 2 ; K H $ R E.(.(.8.L F.(.(.(.(.(.(.(.^.e.;                       ",
"    g z...w.9.f f y           , 6 H.(.E.D.Q.@.; 9 o.7 & % % : & % ; I H $ L G.(.(.5.K A.^.(.(.(.(.(.~.*.;                       ",
"      x. .| b f.`.z           ; L ~.Q.Q.W.o.$ 9 I 5 3 B N ^ e.<.D 3 5 I x $ K G.(.^.5.b p.W.(.(.(.(.K.L ;                       ",
"       .x.W S `.g.'           ; 4.(.(.J.R $ 9 X.5 M D D ^ <.+.R R D 8 6 o.9 $ K F.(.(.5.H r.W.(.(.(.J.S ;                       ",
"      n v.} A Q Q y         , 6 S.(.F.K $ 0 I 5 8 D D ~ S , 5 5 , 8 D 1 9 +.v $ H Z.(.(.6.x r.~.(.J.Z.9 ;                       ",
"        W } g y             ; K K.a.H ; H L , c D D ( J $ J @.@.v ; x Y 1 9 *.v ; 0 a.^.(.6.x 8.W.F.t.5 ,                       ",
"                            ; :.r.9 ; J K , A D Y / :.; 7 @.0.0.L H 5 ;.Y 1 v *.J ; 9 p.~.(.1.8 :.S.7.,                         ",
"                          5 5 o.5 5 I J ; a B D / t.X.; v 0.d.0.J X.7 o.e.F 1 9 =.J ; 7 8.Q.^.:., +.@.;                         ",
"                          ; , , 7 o.H - @ % % & K ( 5 J { 2.d.0.H -.J v s.7.Y 1 9 =.o.5 5 1.W.^.9.5 5 ;                         ",
"                          ; ; 9 %.H # > u > V Y P x ; *.X.2.d.2.v 2.-.5 E ;.~ a 4 7 %.%.9 ; *.H.J.4.7 ,                         ",
"                          5 K %.9 ; X u V ^ t.A.A.,., 2.O.0.d.2.v 2.2.5 K R K A : - 6 o.=.H , R A.S.v ;                         ",
"                          9 o.6 5   X : ^ A.S.S.S.*.5 0.-.2.d.q.v 2.5.6 :.S.s.e.^ V 1 , I -.J 5 K 8.7 ,                         ",
"                          5 ;       X G e.A.S.S.S.&.7 q.-.0.d.q.v 2.q.7 +.S.S.S.A.e.! 3 ; H =.$.5 9 , 1         %X              ",
"                                    - ( A.A.S.S.S.;.5 q.-.-.d.q.v -.q.0 R S.S.S.S.S.A.~ & # 9 *.*.H ;         ;X4X*X            ",
"                                    ; R Z.S.S.S.S.:.5 q.-.@.d.q.v -.d.0 L S.S.S.S.S.A.e.c @ # 5 I *.7         ,X3X<X            ",
"                                    ; R S.A.S.S.S.8., 2.2.o.q.q.0 @.0.v H t.r.r.r.r.7.<.b # 4 3 ; 6 ,         2X3X;XoX-X*X      ",
"                                    ; R S.S.S.S.S.5., X.O.v q.0.0 X.2.0 9 R K x 8 8 6 6 , ; E S ; 5           ,X2X#X,X3X4X&X    ",
"                                    , L t.t.A.A.A.K 5 5 ; , 5 9 ; 7 7 , 9 1.A.t.e.<.E T 7 1 ;.8 ;             #XXX{.+X=X<X      ",
"                                    , K e.t.A.S.4.K J.D.q.6.1.o.X.b K 9 $ 8 e.S.S.S.s.7.K 5 ;.5 ,           C P.].U.).Y.'.      ",
"                                    , A &.>.e.e.W L G.W.^.(.^.(.~.~.Q.*., 1 Y A.S.S.A.7.P 5 T ; 6       e   z./.Y.g.C.V.W       ",
"                                    ; 7 x 9 A G 8 ; 7 x L R o.$.O.@.#.9 v 8 V / S.S.A.7.T 5 K ,       t t M z.M.N.#.S M.x.r     ",
"                                    , P e.,.&.T 7 H I J l 0 9 9 7 9 7 5 J 3 a D e.e.e.7./ , 9 ;     t   y r d S b. .p c.b.p     ",
"                                    , P A.A.S.S.R H 3.3.3.-.-.-.-.3.-.0 9 - O = P E &.,.&., , ;       t p h z d { b.k n.N.k     ",
"                                    , L t.A.A.S.:.5 H I $.$.*.*.=.-.1.H $ 1 = 2 x x 8 c 8 $ ; ,       d f f.@X_ 8 x.k  .M.A     ",
"                                    ; 9 R &.<.e.<.K 6 4 , ; 5 5 7 k x 7 $ M N <.A.t.8.>.&.7 $ 6       ' z ) @Xj.s | k b.v.i     ",
"                                    7 , ; ; 5 7 S R K A N M M V p 2 3 3 s D / s.S.S.A.7.<.x ;         ] Q f OXj.8 m m N.|       ",
"                                        5 7 7 5 $ $ $ 5 8 6 8 S A S A G F ~ ;.>.<.,.;.E R 6 ;           y g ` h i A k.k.s       ",
"                                        5 X.@.X.; 1 < & # , ; ; ; ; , ; ; ; ; , , ; $ ; ; - ;           t y t t t s n y         ",
"                                        ; X.-.O., : % . O               6 6 , ; 9 9 1 < s & O                     t             ",
"                                        6 2.q.-.5 X . .                       i O.%.l q & X o                                   ",
"                                        H 1.0.0.9                             p %.i.I + o o                                     ",
"                                      5 o.o.q.0.9                             k i.i.2.q                                         ",
"                                      5 -.I q.0.J                           w U -.r.i.p                                         ",
"                                      5 0 L q.X.v                           w $.=.=.d.l q                                       ",
"                                        , 5 v 5 ;                           q %.&.( e.l q                                       ",
"                                            1                               w f A d p *                                         ",
"                                                                              w q + q                                           "
};
